{"title":"Adventure.Time.S07E03.Cherry.Cream.Soda.HDTV.x264","uid":12692472,"size":45517632,"categoryP":"video","categoryS":"tv_shows","magnet":"?xt=urn:btih:bb0758bede79d57288970b549de96a547ad6b4f6&amp;dn=Adventure.Time.S07E03.Cherry.Cream.Soda.HDTV.x264&amp;tr=udp%3A%2F%2Ftracker.leechers-paradise.org%3A6969&amp;tr=udp%3A%2F%2Fzer0day.ch%3A1337&amp;tr=udp%3A%2F%2Fopen.demonii.com%3A1337&amp;tr=udp%3A%2F%2Ftracker.coppersurfer.tk%3A6969&amp;tr=udp%3A%2F%2Fexodus.desync.com%3A6969","seeders":0,"leechers":0,"uploader":"TheRival","files":4,"time":1446692294,"description":"Video\r\nID                                       : 1\r\nFormat                                   : AVC\r\nFormat/Info                              : Advanced Video Codec\r\nFormat profile                           :   \r\nFormat settings, CABAC                   : Yes\r\nFormat settings, ReFrames                : 10 frames\r\nCodec ID                                 : avc1\r\nCodec ID/Info                            : Advanced Video Coding\r\nDuration                                 : 11mn 11s\r\nBit rate                                 : 377 Kbps\r\nMaximum bit rate                         : 4 662 Kbps\r\nWidth                                    : 720 pixels\r\nHeight                                   : 404 pixels\r\nDisplay aspect ratio                     : 16:9\r\nFrame rate mode                          : Constant\r\nFrame rate                               : 23.976 fps\r\nColor space                              : YUV\r\nChroma subsampling                       : 4:2:0\r\nBit depth                                : 8 bits\r\nScan type                                : Progressive\r\nBits/(Pixel*Frame)                       : 0.054\r\nStream size                              : 30.2 MiB (75%)\r\nWriting library                          : x264 core 148 r2638 7599210\r\nEncoding settings                        : cabac=1 / ref=10 / deblock=1:1:1 / analyse=0x3:0x113 / me=umh / subme=8 / psy=1 / psy_rd=0.40:0.00 / mixed_ref=1 / me_range=16 / chroma_me=1 / trellis=1 / 8x8dct=1 / cqm=0 / deadzone=21,11 / fast_pskip=1 / chroma_qp_offset=-2 / threads=12 / lookahead_threads=3 / sliced_threads=0 / nr=0 / decimate=1 / interlaced=0 / bluray_compat=0 / constrained_intra=0 / bframes=5 / b_pyramid=2 / b_adapt=2 / b_bias=0 / direct=3 / weightb=1 / open_gop=0 / weightp=2 / keyint=250 / keyint_min=25 / scenecut=40 / intra_refresh=0 / rc_lookahead=50 / rc=crf / mbtree=1 / crf=19.0 / qcomp=0.60 / qpmin=0 / qpmax=69 / qpstep=4 / ip_ratio=1.40 / aq=1:0.60\r\nEncoded date                             : UTC 2015-11-05 01:20:21\r\nTagged date                              : UTC 2015-11-05 01:20:22\r\nColor range                              : Limited\r\nMatrix coefficients                      : BT.709\r\n\r\nAudio\r\nID                                       : 2\r\nFormat                                   : AAC\r\nFormat/Info                              : Advanced Audio Codec\r\nFormat profile                           : LC\r\nCodec ID                                 : 40\r\nDuration                                 : 11mn 11s\r\nBit rate mode                            : Variable\r\nBit rate                                 : 118 Kbps\r\nMaximum bit rate                         : 152 Kbps\r\nChannel(s)                               : 2 channels\r\nChannel positions                        : Front: L R\r\nSampling rate                            : 48.0 KHz\r\nCompression mode                         : Lossy\r\nStream size                              : 9.48 MiB (24%)\r\nLanguage                                 : English\r\nEncoded date                             : UTC 2015-11-05 01:20:22\r\nTagged date                              : UTC 2015-11-05 01:20:22\r\n\r\nText\r\nID                                       : 3\r\nFormat                                   : Timed Text\r\nCodec ID                                 : tx3g\r\nDuration                                 : 11mn 12s\r\nBit rate mode                            : Variable\r\nBit rate                                 : 118 bps\r\nStream size                              : 9.70 KiB (0%)\r\nLanguage                                 : English\r\nEncoded date                             : UTC 2015-11-05 01:20:22\r\nTagged date                              : UTC 2015-11-05 01:20:22","torrent":{"xt":"urn:btih:bb0758bede79d57288970b549de96a547ad6b4f6","amp;dn":"Adventure.Time.S07E03.Cherry.Cream.Soda.HDTV.x264","amp;tr":["udp%3A%2F%2Ftracker.leechers-paradise.org%3A6969","udp%3A%2F%2Fzer0day.ch%3A1337","udp%3A%2F%2Fopen.demonii.com%3A1337","udp%3A%2F%2Ftracker.coppersurfer.tk%3A6969","udp%3A%2F%2Fexodus.desync.com%3A6969"],"infoHash":"bb0758bede79d57288970b549de96a547ad6b4f6","infoHashBuffer":{"type":"Buffer","data":[187,7,88,190,222,121,213,114,136,151,11,84,157,233,106,84,122,214,180,246]},"announce":[],"urlList":[]}}